<?xml version="1.0" encoding="UTF-8"?>
<svg width="53px" height="80px" viewBox="0 0 53 80" version="1.1" xmlns="http://www.w3.org/2000/svg" xmlns:xlink="http://www.w3.org/1999/xlink">
    <title>ADNOC Primary Brand Mark Artwork</title>
    <defs>
        <polygon id="path-1" points="0.0111859155 0.149704836 52.8467392 0.149704836 52.8467392 79.4088141 0.0111859155 79.4088141"></polygon>
    </defs>
    <g id="Symbols" stroke="none" stroke-width="1" fill="none" fill-rule="evenodd">
        <g id="Components-/-Navigation-/-L-/-Secondary-/-Hover-" transform="translate(-18.000000, -18.000000)">
            <g id="ADNOC-Primary-Brand-Mark-Artwork">
                <g transform="translate(18.000000, 18.000000)">
                    <g id="Group-3">
                        <mask id="mask-2" fill="white">
                            <use xlink:href="#path-1"></use>
                        </mask>
                        <g id="Clip-2"></g>
                        <polygon id="Fill-1" fill="#FFFFFE" mask="url(#mask-2)" points="0.0111859155 80.3113141 52.8467392 80.3113141 52.8467392 1.05220484 0.0111859155 1.05220484"></polygon>
                    </g>
                    <path d="M36.7344366,47.4962745 L47.1675743,47.4962745 C49.1460046,37.0033155 42.0240347,25.7796383 30.3664706,23.3588235 C32.7468467,23.9934382 43.2583249,28.7080344 40.6194061,40.6830497 C40.032516,43.3465167 38.6350955,45.6375365 36.7344366,47.4962745" id="Fill-4" fill="#1A4F92"></path>
                    <path d="M5.45039216,5.45039216 L5.45039216,47.4917626 L9.89599641,47.4934451 C12.5935439,47.4869018 13.217638,47.5487827 14.6920278,47.3156547 C21.0516318,46.3810863 26.8672394,41.1636557 27.4950417,36.5530683 C28.4358181,31.0937231 25.4887072,26.310206 19.8314408,25.1225058 C19.7307625,25.1013803 19.6209991,25.0692247 19.5036338,25.0288433 C19.3022772,25.0314606 16.5444711,25.0574468 14.4192879,24.4853765 C14.3929596,24.5078107 13.198726,25.4601394 13.6889532,27.2866514 C13.6889532,27.2866514 10.8554993,24.3064644 12.6562129,20.3010376 C12.6562129,20.3010376 13.5285726,18.411897 16.490331,16.4799446 C16.5131366,16.4524628 16.5359422,16.4255419 16.5585623,16.3980601 C17.351566,15.4502181 19.25166,13.7785016 22.0090953,12.458627 C23.4161808,11.820563 25.8313471,10.9061853 28.5359402,10.6724965 C40.8720887,9.5158302 47.4962745,19.0301442 47.4962745,19.0301442 L47.4962745,5.45039216 L5.45039216,5.45039216" id="Fill-5" fill="#1A4F92"></path>
                    <path d="M35.8418922,15.7766963 C41.1484195,16.3567746 45.7727743,19.537254 47.4962745,21.2530221 L47.4947919,24.9160784 C47.4947919,24.9160784 41.4647652,16.4261576 30.1623105,16.7639431 C30.2701682,17.1680077 30.2875886,17.5969041 30.1969658,18.0267134 C29.8628292,19.6086454 28.1906634,20.6042912 26.4630861,20.2500729 C25.1717582,19.9855046 24.2154936,19.0415308 23.9540034,17.9215434 C22.1758331,18.5479987 21.0229412,19.2014769 21.0229412,19.2000162 C24.9475179,16.5070435 29.9238003,14.9992418 35.8418922,15.7766963" id="Fill-6" fill="#1A4F92"></path>
                    <path d="M8.52817149,65.4047059 L10.1588873,65.4047059 L13.2366667,73.9696078 L11.3992275,73.9696078 L10.7444509,71.9903262 L7.87357805,71.9903262 L7.21880151,73.9696078 L5.45039216,73.9696078 L8.52817149,65.4047059 Z M10.2965808,70.514806 L9.29757054,67.4438499 L8.30991264,70.514806 L10.2965808,70.514806 L10.2965808,70.514806 Z" id="Fill-7" fill="#1A4F92"></path>
                    <path d="M14.0152941,65.4047059 L17.0624769,65.4047059 C18.3102097,65.4047059 19.2822657,65.7606206 19.9786451,66.4724499 C20.6748425,67.1844705 21.0229412,68.2399745 21.0229412,69.6389621 C21.0229412,70.3511739 20.925772,70.9748374 20.7319794,71.5107175 C20.537823,72.0464064 20.2579611,72.4981369 19.8929397,72.865909 C19.5275543,73.2340636 19.0828323,73.5098449 18.5578638,73.6934441 C18.0327133,73.877617 17.4389621,73.9696078 16.7769741,73.9696078 L14.0152941,73.9696078 L14.0152941,65.4047059 Z M16.8115475,72.4461171 C17.2526302,72.4461171 17.6291154,72.3801362 17.941185,72.247983 C18.2532547,72.1162123 18.5061858,71.9263019 18.7003423,71.678443 C18.8943167,71.4305841 19.0369772,71.1368254 19.1281415,70.7967844 C19.2194879,70.4569347 19.265161,70.0750101 19.265161,69.651202 C19.265161,69.2354264 19.2253108,68.8577093 19.1454282,68.5174771 C19.0657276,68.1778186 18.9379883,67.8920923 18.7631201,67.6601071 C18.587888,67.4281219 18.3617057,67.2481564 18.0838455,67.1200195 C17.8061671,66.9920738 17.465529,66.9283879 17.0624769,66.9283879 L15.7157553,66.9283879 L15.7157553,72.4461171 L16.8115475,72.4461171 L16.8115475,72.4461171 Z" id="Fill-8" fill="#1A4F92"></path>
                    <polyline id="Fill-9" fill="#1A4F92" points="22.5801961 65.4047059 24.2189146 65.4047059 27.8147747 71.0187588 27.8147747 65.4047059 29.5878431 65.4047059 29.5878431 73.9696078 27.9612142 73.9696078 24.3534595 68.4035595 24.3534595 73.9696078 22.5801961 73.9696078 22.5801961 65.4047059"></polyline>
                    <path d="M35.0497367,73.9696078 C34.4387013,73.9696078 33.8932057,73.8707421 33.412337,73.6728286 C32.9314684,73.4750972 32.5228944,73.1894245 32.1869801,72.8161746 C31.8508832,72.4432888 31.5934706,71.9939323 31.414012,71.4686514 C31.234736,70.9433704 31.145098,70.3496299 31.145098,69.6872479 C31.145098,69.0248659 31.234736,68.4309433 31.414012,67.9056624 C31.5934706,67.3803814 31.8528914,66.9313891 32.1928221,66.5583212 C32.5323876,66.1850713 32.9427873,65.8995806 33.4238384,65.7014851 C33.9047071,65.5039357 34.4465515,65.4047059 35.0497367,65.4047059 C35.660407,65.4047059 36.2062678,65.5039357 36.6869538,65.7014851 C37.168005,65.8995806 37.5743883,66.1850713 37.9064688,66.5583212 C38.2387319,66.9313891 38.4924932,67.3803814 38.6679354,67.9056624 C38.8437427,68.4309433 38.9313725,69.0248659 38.9313725,69.6872479 C38.9313725,70.3496299 38.8457509,70.9433704 38.67396,71.4686514 C38.5019864,71.9939323 38.2500507,72.4432888 37.9179702,72.8161746 C37.5860723,73.1894245 37.1795064,73.4750972 36.6986378,73.6728286 C36.2175866,73.8707421 35.6678921,73.9696078 35.0497367,73.9696078 M35.0382353,72.5079248 C35.7557044,72.5079248 36.2900638,72.264493 36.6414959,71.7770832 C36.9920151,71.2898556 37.168005,70.5932438 37.168005,69.6872479 C37.168005,68.7890812 36.9920151,68.094108 36.6414959,67.6030568 C36.2900638,67.1121877 35.7557044,66.866571 35.0382353,66.866571 C34.3205836,66.866571 33.7860417,67.1121877 33.4351573,67.6030568 C33.0839078,68.094108 32.9084656,68.7890812 32.9084656,69.6872479 C32.9084656,70.5932438 33.0839078,71.2898556 33.4351573,71.7770832 C33.7860417,72.264493 34.3205836,72.5079248 35.0382353,72.5079248" id="Fill-10" fill="#1A4F92"></path>
                    <path d="M47.4962745,70.9433704 C47.4550897,71.3774327 47.3464404,71.7790861 47.1703265,72.1483304 C46.9938203,72.5175747 46.7520069,72.8372951 46.444494,73.1073095 C46.1369811,73.3778702 45.7596501,73.5892571 45.3126974,73.7412881 C44.8659407,73.8935013 44.3472087,73.9696078 43.7568937,73.9696078 C43.0924461,73.9696078 42.5080147,73.8669186 42.0039916,73.661176 C41.4995762,73.4557975 41.0771382,73.1666654 40.7368735,72.7934154 C40.3964128,72.4203476 40.1400866,71.9693525 39.9680912,71.4400659 C39.7958997,70.9111435 39.71,70.3266887 39.71,69.6872479 C39.71,69.0248659 39.8039405,68.4309433 39.992606,67.9056624 C40.1812714,67.3803814 40.4519142,66.9313891 40.8045342,66.5583212 C41.1567621,66.1850713 41.5835147,65.8997627 42.0838116,65.7014851 C42.5837162,65.5039357 43.1499087,65.4047059 43.7814085,65.4047059 C44.3389718,65.4047059 44.8247559,65.4695239 45.238957,65.5987958 C45.652962,65.7282498 46.0016597,65.9148748 46.2844617,66.1583066 C46.5672638,66.4022845 46.7951529,66.6952402 46.9671483,67.0377198 C47.1391437,67.3803814 47.2666204,67.7651019 47.3485977,68.1913351 L45.5280348,68.4081842 C45.4378206,67.9287856 45.2634717,67.5518943 45.0053805,67.2775101 C44.7470932,67.00349 44.3389718,66.8663889 43.7814085,66.8663889 C43.0761683,66.8663889 42.5409625,67.1121877 42.1761831,67.6032389 C41.8110115,68.094108 41.6290141,68.7890812 41.6290141,69.6872479 C41.6290141,70.5932438 41.8231708,71.2898556 42.2130533,71.7770832 C42.6023474,72.264493 43.1250017,72.5079248 43.7814085,72.5079248 C44.3472087,72.5079248 44.7635671,72.3728265 45.0298953,72.1024479 C45.2960273,71.8324335 45.4623353,71.4458922 45.5280348,70.9433704 L47.4962745,70.9433704" id="Fill-11" fill="#1A4F92"></path>
                    <path d="M14.5721365,60.0479156 L14.5721365,52.9466667 L16.3511765,52.9466667 L16.3511765,61.5115686 L8.93517834,61.5115686 C7.75200729,61.5115686 6.87552788,61.271473 6.30554974,60.7916395 C5.73519085,60.3118061 5.45039216,59.580069 5.45039216,58.5966072 C5.45039216,58.0529033 5.56956594,57.5730699 5.80772314,57.1571068 C6.04607071,56.7413227 6.396929,56.4135618 6.86067875,56.1736451 C7.3244285,55.9335494 7.87993825,55.7975787 8.52625615,55.765733 L8.73090762,57.1932464 C8.16073911,57.233322 7.75200729,57.3630309 7.50547366,57.5830887 C7.25836891,57.8027888 7.13519728,58.1409265 7.13519728,58.5966072 C7.13519728,59.1004145 7.27321804,59.468251 7.55002105,59.7001168 C7.82644331,59.9319827 8.26277928,60.0479156 8.85845784,60.0479156 L14.5721365,60.0479156 Z M12.9219793,56.4117727 L12.9219793,56.9755144 L10.6504432,56.9755144 L10.6504432,56.4117727 L10.9308633,56.4117727 L10.9308633,56.0553863 C10.9308633,55.7673431 11.0161506,55.5453173 11.1863445,55.3894877 C11.3565384,55.2336581 11.5992645,55.1558328 11.9137615,55.1558328 C12.2200724,55.1558328 12.4475687,55.2175563 12.5964407,55.3413612 C12.7455031,55.4657029 12.841261,55.6755629 12.884095,55.9711203 L12.3097383,56.0432205 C12.2926047,55.9074287 12.2583375,55.8135016 12.2073174,55.7612602 C12.1562973,55.7093767 12.0713907,55.683256 11.9522169,55.683256 C11.6881689,55.683256 11.5564305,55.8231627 11.5564305,56.1035128 L11.5564305,56.4117727 L12.9219793,56.4117727 L12.9219793,56.4117727 Z" id="Fill-12" fill="#1A4F92"></path>
                    <path d="M32.5513454,55.282549 L32.5513454,60.1258801 L22.8745253,60.1258801 L22.8745253,58.2904476 C22.8745253,57.283386 22.6422152,56.5303042 22.1783499,56.0313947 C21.7144845,55.5324852 21.0060425,55.282549 20.0526463,55.282549 C19.1502036,55.282549 18.4374211,55.54943 17.9146762,56.0831919 C17.3913651,56.6167613 17.1298039,57.339612 17.1298039,58.2519367 C17.1298039,59.3279329 17.4568498,60.2701036 18.110564,60.8421839 C18.7640895,61.4146494 19.7067288,61.7007858 20.9384819,61.7007858 L21.1662628,61.7007858 L21.1662628,61.9093227 C21.1662628,62.6063711 21.0809629,63.0084255 20.9107406,63.2389136 L21.77544,64.6260784 C21.923205,64.5351926 22.0553066,64.4289023 22.1719335,64.3077853 C22.6401393,63.8213919 22.8745253,62.7165124 22.8745253,61.7007858 L34.2596078,61.7007858 L34.2596078,55.282549 L32.5513454,55.282549 Z M21.1662628,60.1258801 L20.634837,60.1258801 C19.4368641,60.1258801 18.8378777,59.4224774 18.8378777,58.2519367 C18.8378777,57.7701646 18.9392185,57.3998817 19.1417114,57.1416657 C19.3442043,56.8836422 19.639357,56.7540528 20.027547,56.7540528 C20.322511,56.7540528 20.5502919,56.8041171 20.710701,56.9028977 C20.8709214,57.0018709 20.9867934,57.1805617 21.0585057,57.4385852 C21.130218,57.6968012 21.1662628,58.2064938 21.1662628,58.7313982 L21.1662628,60.1258801 L21.1662628,60.1258801 Z" id="Fill-13" fill="#1A4F92"></path>
                    <polygon id="Fill-14" fill="#1A4F92" points="32.7023529 54.5039216 34.2596078 54.5039216 34.2596078 52.9466667 32.7023529 52.9466667"></polygon>
                    <path d="M42.6601487,59.9829061 L42.6601487,59.0789769 C42.6601487,58.3105343 42.5134946,57.7426118 42.2199962,57.3748358 C41.9266881,57.0074335 41.4741718,56.8237324 40.8618768,56.8237324 C40.4706091,56.8237324 40.0369239,56.8988574 39.5610115,57.0492942 L39.153005,55.5581942 C39.7310617,55.374493 40.3473512,55.282549 41.0020637,55.282549 C42.0904613,55.282549 42.9256857,55.5959435 43.5081173,56.2221719 C44.0901685,56.8487741 44.3817647,57.7467232 44.3817647,58.9162061 L44.3817647,61.5115686 L35.8168627,61.5115686 L35.8168627,59.9829061 L42.6601487,59.9829061" id="Fill-15" fill="#1A4F92"></path>
                    <path d="M47.4962745,52.4641197 L47.4962745,52.9466667 L45.1603922,52.9466667 L45.1603922,52.4641197 L45.4490989,52.4641197 L45.4490989,52.1591599 C45.4490989,51.9128343 45.5362003,51.7228468 45.7113817,51.5895034 C45.8863673,51.45616 46.1359274,51.3894118 46.4594747,51.3894118 C46.7746055,51.3894118 47.0081154,51.4423817 47.1615704,51.5481685 C47.3144382,51.6547207 47.4128921,51.8339918 47.4569321,52.0872065 L46.8664044,52.1489027 C46.8487884,52.0325525 46.8137522,51.9523322 46.7612956,51.9074761 C46.7088391,51.8632324 46.6213462,51.840881 46.4986214,51.840881 C46.2275306,51.840881 46.0918874,51.9607522 46.0918874,52.2003417 L46.0918874,52.4641197 L47.4962745,52.4641197" id="Fill-16" fill="#1A4F92"></path>
                    <polygon id="Fill-17" fill="#1A4F92" points="45.1603922 61.5115686 46.7176471 61.5115686 46.7176471 53.7252941 45.1603922 53.7252941"></polygon>
                </g>
            </g>
        </g>
    </g>
</svg>